<?xml version="1.0" encoding="UTF-8"?><svg xmlns="http://www.w3.org/2000/svg" xmlns:xlink="http://www.w3.org/1999/xlink" contentScriptType="text/ecmascript" width="350" zoomAndPan="magnify" contentStyleType="text/css" height="300" preserveAspectRatio="xMidYMid meet" version="1.0"><g fill="white" stroke-width="3" stroke="black"><line y2="75" x1="175" x2="50" y1="25"/><line y2="75" x1="175" x2="225" y1="25"/><line y2="108" x1="50" x2="25" y1="75"/><line y2="108" x1="50" x2="75" y1="75"/><circle r="3" cx="25" cy="108"/><circle r="3" cx="75" cy="108"/><circle r="20" cx="50" cy="75"/><line y2="125" x1="225" x2="200" y1="75"/><line y2="108" x1="225" x2="325" y1="75"/><line y2="158" x1="200" x2="125" y1="125"/><line y2="175" x1="200" x2="225" y1="125"/><circle r="3" cx="125" cy="158"/><line y2="225" x1="225" x2="200" y1="175"/><line y2="208" x1="225" x2="275" y1="175"/><line y2="258" x1="200" x2="175" y1="225"/><line y2="258" x1="200" x2="225" y1="225"/><circle r="3" cx="175" cy="258"/><circle r="3" cx="225" cy="258"/><circle r="20" cx="200" cy="225"/><circle r="3" cx="275" cy="208"/><circle r="20" cx="225" cy="175"/><circle r="20" cx="200" cy="125"/><circle r="3" cx="325" cy="108"/><circle r="20" cx="225" cy="75"/><circle r="20" cx="175" cy="25"/></g></svg>